<?xml version="1.0" standalone="no"?>
<!DOCTYPE svg PUBLIC "-//W3C//DTD SVG 20010904//EN"
 "http://www.w3.org/TR/2001/REC-SVG-20010904/DTD/svg10.dtd">
<svg version="1.0" xmlns="http://www.w3.org/2000/svg"
 width="512.000000pt" height="512.000000pt" viewBox="0 0 512.000000 512.000000"
 preserveAspectRatio="xMidYMid meet">

<g transform="translate(0.000000,512.000000) scale(0.100000,-0.100000)"
fill="#000000" stroke="none">
<path d="M2290 4969 c-755 -92 -1398 -491 -1811 -1122 -189 -288 -315 -623
-371 -982 -17 -112 -21 -184 -21 -360 0 -253 19 -410 77 -630 238 -897 959
-1588 1867 -1789 416 -92 933 -67 1309 64 663 230 1162 671 1457 1287 162 339
237 676 237 1068 0 304 -33 511 -125 790 -255 769 -880 1368 -1665 1594 -211
62 -371 83 -639 87 -132 1 -274 -2 -315 -7z m462 -980 c416 -45 731 -246 877
-561 141 -302 115 -760 -62 -1101 -163 -314 -425 -487 -739 -488 -158 0 -222
23 -382 135 -44 31 -83 53 -86 49 -4 -5 -13 -42 -20 -83 -49 -291 -144 -564
-250 -721 -45 -65 -161 -189 -178 -189 -25 0 -30 388 -7 577 20 160 39 252
136 639 46 186 79 337 76 352 -2 15 -15 54 -27 87 -19 48 -23 81 -24 165 0
167 43 294 135 394 65 71 131 100 214 94 71 -6 154 -45 183 -85 64 -93 57
-200 -32 -492 -84 -272 -101 -381 -76 -473 37 -133 236 -195 411 -129 335 128
521 800 333 1210 -59 129 -153 218 -301 287 -103 49 -190 67 -318 67 -337 0
-657 -199 -802 -498 -57 -119 -76 -209 -71 -355 3 -125 1 -118 97 -297 41 -76
49 -140 27 -214 -25 -84 -27 -86 -83 -71 -84 22 -156 64 -219 126 -112 112
-158 255 -158 486 0 190 28 310 111 471 53 105 102 172 191 263 270 275 635
399 1044 355z"/>
</g>
</svg>
